<?xml version="1.0" encoding="UTF-8" ?>
<!DOCTYPE svg PUBLIC "-//W3C//DTD SVG 1.1//EN" "http://www.w3.org/Graphics/SVG/1.1/DTD/svg11.dtd">
<svg width="1024pt" height="1024pt" viewBox="0 0 1024 1024" version="1.1" xmlns="http://www.w3.org/2000/svg">
<g id="#ffffffff">
<path fill="#ffffff" opacity="1.00" d=" M 234.35 0.00 L 789.55 0.00 C 829.81 0.93 869.83 12.02 904.61 32.36 C 954.79 61.38 993.78 109.17 1011.87 164.26 C 1019.40 186.84 1023.34 210.56 1024.00 234.34 L 1024.00 789.60 C 1023.11 826.63 1013.71 863.47 996.31 896.20 C 980.59 925.95 958.52 952.30 932.04 973.04 C 891.75 1004.84 841.01 1022.89 789.72 1024.00 L 234.39 1024.00 C 201.11 1023.17 167.97 1015.56 137.86 1001.33 C 83.97 976.17 40.22 930.21 17.82 875.12 C 6.67 848.06 0.78 818.94 0.00 789.71 L 0.00 234.35 C 0.62 212.56 3.94 190.82 10.32 169.96 C 25.86 118.36 59.55 72.55 104.00 42.12 C 142.10 15.72 188.04 1.05 234.35 0.00 M 424.00 137.98 C 388.94 153.66 358.29 179.03 336.31 210.53 C 302.02 213.56 268.47 224.90 239.48 243.49 C 209.73 262.47 184.90 289.04 167.86 319.93 C 147.84 355.92 138.58 397.81 141.73 438.89 C 143.59 464.76 150.30 490.25 161.22 513.77 C 152.22 533.11 146.10 553.78 143.18 574.91 C 138.03 611.49 142.65 649.38 156.47 683.63 C 170.37 718.27 193.43 749.22 222.85 772.23 C 255.24 797.69 295.16 813.43 336.21 816.92 C 362.00 853.77 399.58 882.26 442.20 896.71 C 480.27 909.77 522.06 911.69 561.19 902.30 C 611.50 890.44 656.90 859.38 686.39 816.95 C 716.06 814.48 745.14 805.56 771.21 791.20 C 814.17 767.74 848.29 728.84 866.36 683.38 C 888.25 629.37 886.37 566.40 861.48 513.73 C 872.95 489.05 879.73 462.20 881.20 435.03 C 883.33 398.22 875.58 360.90 859.03 327.95 C 844.01 297.79 821.77 271.25 794.60 251.31 C 763.18 228.15 725.30 213.91 686.42 210.57 C 659.02 171.28 618.09 141.62 572.10 128.13 C 523.65 113.68 470.09 117.17 424.00 137.98 Z" />
<path fill="#ffffff" opacity="1.00" d=" M 504.66 185.50 C 540.71 183.81 577.56 195.72 605.08 219.21 C 569.80 230.07 537.44 250.24 512.19 277.16 C 485.85 305.13 467.41 340.38 459.28 377.91 C 452.57 408.55 452.73 440.66 459.78 471.23 C 428.79 459.70 401.97 437.41 384.94 409.08 C 363.11 373.39 357.90 328.23 370.61 288.41 C 380.12 258.10 399.83 231.17 425.70 212.75 C 448.65 196.29 476.43 186.69 504.66 185.50 Z" />
<path fill="#ffffff" opacity="1.00" d=" M 611.88 286.84 C 644.01 273.43 680.93 272.20 713.96 283.14 C 746.93 293.82 775.78 316.58 793.75 346.23 C 812.32 376.22 819.49 413.02 813.48 447.79 C 787.55 423.56 755.45 406.00 721.07 397.21 C 685.69 388.10 647.97 388.33 612.68 397.78 C 579.09 406.73 547.76 424.06 522.37 447.81 C 516.46 412.78 523.74 375.75 542.51 345.59 C 558.65 319.32 583.38 298.55 611.88 286.84 Z" />
<path fill="#ffffff" opacity="1.00" d=" M 236.77 334.68 C 253.51 312.20 276.91 294.83 303.17 285.06 C 291.14 337.06 299.41 393.49 326.32 439.63 C 352.91 486.02 397.56 521.61 448.72 537.18 C 419.77 561.08 381.52 573.38 344.06 570.54 C 307.80 568.08 272.82 551.40 247.80 525.08 C 220.84 496.96 205.95 457.80 207.19 418.88 C 208.01 388.64 218.59 358.84 236.77 334.68 Z" />
<path fill="#ffffff" opacity="1.00" d=" M 654.20 457.19 C 688.73 453.90 724.31 463.21 752.62 483.29 C 779.94 502.39 800.49 530.98 809.69 563.03 C 818.99 595.06 817.06 630.25 804.12 661.01 C 791.35 691.69 767.85 717.73 738.67 733.64 C 707.41 750.92 669.76 755.99 634.98 747.99 C 602.51 740.68 572.87 721.83 552.26 695.73 C 531.01 669.15 519.52 635.00 520.41 600.98 C 520.96 565.19 535.32 529.89 559.77 503.77 C 584.12 477.36 618.40 460.34 654.20 457.19 Z" />
<path fill="#ffffff" opacity="1.00" d=" M 209.17 579.73 C 243.46 611.54 288.31 631.85 334.95 636.02 C 375.99 639.89 418.03 631.43 454.49 612.22 C 455.49 639.74 461.90 667.05 473.27 692.13 C 457.20 713.83 435.01 730.89 409.98 741.01 C 377.34 754.40 339.87 755.26 306.57 743.65 C 274.45 732.70 246.44 710.23 228.87 681.19 C 210.33 651.21 203.23 614.47 209.17 579.73 Z" />
<path fill="#ffffff" opacity="1.00" d=" M 417.37 808.39 C 453.14 797.41 485.90 776.87 511.36 749.45 C 536.70 776.94 569.53 797.48 605.29 808.37 C 578.83 830.41 544.45 842.61 510.02 842.16 C 476.45 842.01 443.19 829.81 417.37 808.39 Z" />
</g>
<g id="#231815ff">
<path fill="#231815" opacity="1.00" d=" M 424.00 137.98 C 470.09 117.17 523.65 113.68 572.10 128.13 C 618.09 141.62 659.02 171.28 686.42 210.57 C 725.30 213.91 763.18 228.15 794.60 251.31 C 821.77 271.25 844.01 297.79 859.03 327.95 C 875.58 360.90 883.33 398.22 881.20 435.03 C 879.73 462.20 872.95 489.05 861.48 513.73 C 849.87 488.95 833.44 466.49 813.48 447.79 C 819.49 413.02 812.32 376.22 793.75 346.23 C 775.78 316.58 746.93 293.82 713.96 283.14 C 680.93 272.20 644.01 273.43 611.88 286.84 C 583.38 298.55 558.65 319.32 542.51 345.59 C 523.74 375.75 516.46 412.78 522.37 447.81 C 498.19 470.42 479.22 498.61 467.73 529.67 C 457.90 555.96 453.51 584.19 454.49 612.22 C 418.03 631.43 375.99 639.89 334.95 636.02 C 288.31 631.85 243.46 611.54 209.17 579.73 C 203.23 614.47 210.33 651.21 228.87 681.19 C 246.44 710.23 274.45 732.70 306.57 743.65 C 339.87 755.26 377.34 754.40 409.98 741.01 C 435.01 730.89 457.20 713.83 473.27 692.13 C 482.80 713.12 495.77 732.48 511.36 749.45 C 485.90 776.87 453.14 797.41 417.37 808.39 C 443.19 829.81 476.45 842.01 510.02 842.16 C 544.45 842.61 578.83 830.41 605.29 808.37 C 631.47 816.35 659.13 819.14 686.39 816.95 C 656.90 859.38 611.50 890.44 561.19 902.30 C 522.06 911.69 480.27 909.77 442.20 896.71 C 399.58 882.26 362.00 853.77 336.21 816.92 C 295.16 813.43 255.24 797.69 222.85 772.23 C 193.43 749.22 170.37 718.27 156.47 683.63 C 142.65 649.38 138.03 611.49 143.18 574.91 C 146.10 553.78 152.22 533.11 161.22 513.77 C 150.30 490.25 143.59 464.76 141.73 438.89 C 138.58 397.81 147.84 355.92 167.86 319.93 C 184.90 289.04 209.73 262.47 239.48 243.49 C 268.47 224.90 302.02 213.56 336.31 210.53 C 358.29 179.03 388.94 153.66 424.00 137.98 M 504.66 185.50 C 476.43 186.69 448.65 196.29 425.70 212.75 C 399.83 231.17 380.12 258.10 370.61 288.41 C 357.90 328.23 363.11 373.39 384.94 409.08 C 401.97 437.41 428.79 459.70 459.78 471.23 C 452.73 440.66 452.57 408.55 459.28 377.91 C 467.41 340.38 485.85 305.13 512.19 277.16 C 537.44 250.24 569.80 230.07 605.08 219.21 C 577.56 195.72 540.71 183.81 504.66 185.50 M 236.77 334.68 C 218.59 358.84 208.01 388.64 207.19 418.88 C 205.95 457.80 220.84 496.96 247.80 525.08 C 272.82 551.40 307.80 568.08 344.06 570.54 C 381.52 573.38 419.77 561.08 448.72 537.18 C 397.56 521.61 352.91 486.02 326.32 439.63 C 299.41 393.49 291.14 337.06 303.17 285.06 C 276.91 294.83 253.51 312.20 236.77 334.68 Z" />
</g>
<g id="#2f599bff">
<path fill="#2f599b" opacity="1.00" d=" M 612.68 397.78 C 647.97 388.33 685.69 388.10 721.07 397.21 C 755.45 406.00 787.55 423.56 813.48 447.79 C 833.44 466.49 849.87 488.95 861.48 513.73 C 886.37 566.40 888.25 629.37 866.36 683.38 C 848.29 728.84 814.17 767.74 771.21 791.20 C 745.14 805.56 716.06 814.48 686.39 816.95 C 659.13 819.14 631.47 816.35 605.29 808.37 C 569.53 797.48 536.70 776.94 511.36 749.45 C 495.77 732.48 482.80 713.12 473.27 692.13 C 461.90 667.05 455.49 639.74 454.49 612.22 C 453.51 584.19 457.90 555.96 467.73 529.67 C 479.22 498.61 498.19 470.42 522.37 447.81 C 547.76 424.06 579.09 406.73 612.68 397.78 M 654.20 457.19 C 618.40 460.34 584.12 477.36 559.77 503.77 C 535.32 529.89 520.96 565.19 520.41 600.98 C 519.52 635.00 531.01 669.15 552.26 695.73 C 572.87 721.83 602.51 740.68 634.98 747.99 C 669.76 755.99 707.41 750.92 738.67 733.64 C 767.85 717.73 791.35 691.69 804.12 661.01 C 817.06 630.25 818.99 595.06 809.69 563.03 C 800.49 530.98 779.94 502.39 752.62 483.29 C 724.31 463.21 688.73 453.90 654.20 457.19 Z" />
</g>
</svg>
