<?xml version="1.0" encoding="UTF-8"?>
<svg id="_图层_2" xmlns="http://www.w3.org/2000/svg" version="1.1" viewBox="0 0 98.1 84.8">
  <!-- Generator: Adobe Illustrator 29.1.0, SVG Export Plug-In . SVG Version: 2.1.0 Build 142)  -->
  <g id="_编辑图层">
    <path d="M96.4,7.6C93.8,1.4,89.6.2,87.3,0c-8.6-.6-18.8,9.9-34,35.2-1.5,2.5-3,4.9-4.2,7-1.2-2.1-2.7-4.4-4.2-7C29.6,9.9,19.4-.6,10.8,0,8.5.2,4.3,1.4,1.7,7.6c-3.5,8.5-.9,25.1,1,34.2,2.8,13.8,7.4,27.5,11.7,35,2.8,5,5.6,7.5,8.9,8,.5,0,1,.1,1.6.1,9.5,0,18.7-12.5,24.2-22,5.5,9.5,14.6,22,24.2,22s1.1,0,1.6-.1c3.2-.5,6.1-3,8.9-8,4.2-7.5,8.8-21.2,11.7-35,1.9-9.1,4.5-25.7,1-34.2ZM83.8,47c-3.7,14.6-7.7,23-9.8,26.3-.7,1-2,1.3-3,.7-4-2.5-10.5-10.5-16.2-21.6,1.5-2.5,4.1-6.9,7.1-11.9,13.3-22.1,20.3-28.1,23.1-29.8.8-.4,1.7-.1,2,.7h0c2.1,5.1.8,19.7-3.2,35.6h0ZM43.3,52.3c-1.4,2.7-3.8,7.1-6.8,11.3-4.7,6.8-8,9.4-9.8,10.4-.9.4-1.9.2-2.4-.6-2.1-3.2-6.2-11.6-9.9-26.5-4-15.9-5.3-30.5-3.2-35.5h0c.3-.8,1.3-1.1,2-.7,2.8,1.7,9.8,7.7,23.1,29.8,3,5,5.6,9.3,7.1,11.8Z"/>
  </g>
</svg>