<?xml version="1.0" encoding="UTF-8"?>
<svg id="_图层_2" data-name="图层 2" xmlns="http://www.w3.org/2000/svg" viewBox="0 0 98.1 84.82">
  <defs>
    <style>
      .cls-1 {
        fill: #fff;
      }
    </style>
  </defs>
  <g id="_编辑图层" data-name="编辑图层">
    <path class="cls-1" d="M96.38,7.56C93.83,1.41,89.58.2,87.27.03c-8.62-.64-18.77,9.91-34.03,35.24-1.54,2.55-2.96,4.93-4.2,7-1.23-2.06-2.65-4.44-4.2-7C29.59,9.93,19.39-.61,10.82.03,8.51.2,4.26,1.41,1.72,7.56c-3.51,8.48-.87,25.06,1.01,34.19,2.84,13.79,7.42,27.52,11.67,34.99,2.82,4.97,5.64,7.5,8.88,7.97.52.08,1.05.11,1.57.11,9.55,0,18.65-12.48,24.2-21.98,5.55,9.51,14.64,21.98,24.2,21.98.52,0,1.05-.04,1.57-.11,3.23-.47,6.05-3,8.88-7.97,4.24-7.47,8.82-21.2,11.67-34.99,1.88-9.13,4.52-25.72,1.01-34.19ZM83.79,46.97c-3.67,14.61-7.65,22.98-9.79,26.31-.65,1.01-1.98,1.28-2.99.65-3.97-2.47-10.5-10.53-16.18-21.59,1.5-2.54,4.08-6.88,7.08-11.85,13.31-22.1,20.34-28.13,23.14-29.77.76-.44,1.65-.13,1.99.68v.02c2.09,5.04.76,19.66-3.24,35.55ZM43.26,52.32c-1.4,2.67-3.84,7.06-6.78,11.35-4.7,6.83-7.95,9.45-9.82,10.44-.85.45-1.89.18-2.42-.63-2.12-3.19-6.18-11.6-9.93-26.51-4-15.89-5.34-30.51-3.25-35.55h0c.33-.79,1.28-1.12,2.02-.68,2.83,1.66,9.84,7.72,23.12,29.75,2.99,4.96,5.56,9.29,7.06,11.83Z"/>
  </g>
</svg>