<?xml version="1.0" encoding="UTF-8"?>
<svg id="_图层_1" data-name="图层_1" xmlns="http://www.w3.org/2000/svg" version="1.1" xmlns:xlink="http://www.w3.org/1999/xlink" viewBox="0 0 288 128">
  <!-- Generator: Adobe Illustrator 29.1.0, SVG Export Plug-In . SVG Version: 2.1.0 Build 142)  -->
  <defs>
    <style>
      .st0 {
        fill: #fff;
        fill-rule: evenodd;
      }

      .st1 {
        fill: none;
      }

      .st2 {
        clip-path: url(#clippath);
      }
    </style>
    <clipPath id="clippath">
      <rect class="st1" width="288" height="128"/>
    </clipPath>
  </defs>
  <g class="st2">
    <g>
      <path d="M224,0H64C28.7,0,0,28.7,0,64s28.7,64,64,64h160c35.3,0,64-28.7,64-64S259.3,0,224,0Z"/>
      <path class="st0" d="M223.2,48.2c0,0,0,.1.1.1.1,0,.2,0,.4,0,.9,0,1.9,0,2.8,0s1.8,0,2.6,0c.4,0,.9,0,1.3-.1,3.2-.7,5.3-3.9,4.6-7.1-.6-2.9-3.4-5-6.6-4.6-3,.4-5.1,2.9-5.2,5.9,0,1.8,0,3.7,0,5.5,0,.1,0,.2,0,.3ZM137.3,84.1c-1.5,0-10.1,0-12.6,0-1.9,0-3.9-.3-5.7-.9,0,0-.2,0-.2.1l-5.3,11.6c0,0,0,.2,0,.2.8.4,2.5.9,3.7.9.9,0,.8,0,1.7,0,3.5,0,12,0,13.1,0,0,0,.1,0,.2-.1l5.3-11.5c0-.1,0-.3-.2-.3ZM70.6,48.4c-.1,0-.2,0-.3,0-3.6,0-7.2,0-10.7,0-.1,0-.4,0-.5,0,0,0,0,0,0,0,0,0,0,.4,0,.6,0,1.2-.2,2.4-.3,3.6,0,1.1-.2,2.2-.3,3.3,0,1.1-.2,2.3-.3,3.4,0,1.2-.2,2.4-.3,3.5,0,1.2-.2,2.4-.3,3.6,0,1.1-.2,2.2-.3,3.3,0,.7-.1,1.4-.2,2.1,0,1.8-.3,2.9-1,4.5-.2.4-.2.3,0,.8.3.7,5.1,11.4,5.9,13,0,.1,0,.2.1.2,0,0,.2-.2.4-.3,1.1-1.4,2-2.9,2.8-4.5,1.1-2.3,1.9-4.8,2.6-7.3.5-1.8.8-3.6,1-5.5.1-.8.2-1.6.2-2.5.2-1.9.3-3.9.5-5.8.1-1.7.3-3.4.4-5.1,0-1.2.2-2.5.3-3.7.1-1.6.3-3.2.4-4.8,0-.7.1-1.5.2-2.2,0-.2,0-.2-.2-.3ZM113.3,76.4c-.8-1.6-.9-2.7-1-4.5,0-.7-.1-1.4-.2-2.1,0-1.1-.2-2.2-.3-3.3,0-1.2-.2-2.4-.3-3.6,0-1.2-.2-2.4-.3-3.5,0-1.1-.2-2.3-.3-3.4,0-1.1-.2-2.2-.3-3.3,0-1.2-.2-2.4-.3-3.6,0-.2,0-.5,0-.6,0,0-.4,0-.6,0-3.6,0-7.2,0-10.7,0s-.2,0-.3,0c-.2,0-.2,0-.2.3,0,.7.1,1.5.2,2.2.1,1.6.3,3.2.4,4.8,0,1.2.2,2.5.3,3.7.1,1.7.3,3.4.4,5.1.2,1.9.3,3.9.5,5.8,0,.8.1,1.6.2,2.5.2,1.8.6,3.7,1,5.5.6,2.5,1.5,4.9,2.6,7.3.8,1.6,1.7,3.1,2.8,4.5.1.1.3.4.4.4,0,0,0,0,0-.1.7-1.4,5.6-12.3,5.9-13,.3-.5.2-.4,0-.8ZM142.1,69.6h-6.5c-.7,0-1.1-.7-.9-1.3l8.8-19.6c0-.1,0-.3-.2-.3h-9.8c-.8,0-1.3-.9-1-1.6l6.5-14.6c0-.1,0-.3-.2-.3-1.5,0-8.4,0-11.6,0,0,0-.1,0-.2.1l-6.9,15.4c-.7,1.4-1.4,2.8-2,4.3-.4.9-.7,1.8-1,2.7-.1.5-.2.9-.2,1.4,0,1.2.7,2.2,1.7,2.8.3.2.6.3,1,.5.8.3,1.6.4,2.5.4,1.8,0,2.6,0,4.4,0,.2,0-4.4,9.9-5.2,11.9-.4.9-.8,1.9-1.1,2.9-.1.4-.2.9-.2,1.3,0,1.3.6,2.3,1.7,3,.3.2.7.4,1,.5.8.3,1.7.4,2.5.4,3.7,0,8.3,0,12.1,0s.2,0,.3,0c0,0,.1,0,.2-.1l4.3-9.6c0-.1,0-.3-.2-.3ZM90.4,32.8h-11.3c-.1,0-.2.1-.2.2,0,2.8,0,30.2,0,44v6.9c0,2.1-2,2-2.1,2h-5.1c-.1,0-.3,0-.4,0-.3,0-.3,0-.3.4,0,.3,3.5,7.9,4.1,9.4,0,.2.2.2.4.3,1.2,0,5.7,0,7-.1,1.1-.1,2.2-.5,3.3-1,2.2-1.2,3.7-3.1,4.4-5.7.4-1.3.6-2.6.6-4,0-8.6,0-17.1,0-25.7,0-8.2,0-24.4,0-26.5,0-.1-.1-.2-.2-.2ZM178.4,84.3c0-.1,0-.2-.2-.2-.2,0-.3,0-.5,0h-10.1c-.1,0-.2,0-.4,0-.4,0-.4,0-.4-.4,0-.1,0-.2,0-.3v-34.5c0-.5,0-.5.5-.5.1,0,4.3,0,6.4,0,.6,0,.6,0,.6-.5v-10.8c0-.6,0-.6-.6-.6h-26.1c-.5,0-.6,0-.6.5,0,3.6,0,7.2,0,10.8,0,.6,0,.6.6.6,2.3,0,4.1,0,6.4,0,.6,0,.5,0,.5.5h0v34.5c0,.7,0,.6-.6.6-2.8,0-8.3,0-9.7,0-.4,0-.4.2-.4.2l-5.2,11.3s-.1.2,0,.3c0,0,0,0,.4,0,1.9,0,8.6,0,12.6,0h26c.2,0,.3,0,.5,0,.2,0,.3,0,.3-.2,0,0,0-.2,0-.3v-10.9c0-.1,0-.2,0-.3ZM209.5,58.6c0,0,0,.2-.2.2-.1,0-.2,0-.3,0-1.7,0-5.4,0-7.1,0,0,0-.2,0-.3,0-.1,0-.2,0-.2-.2,0-.1,0-.3,0-.4v-9.3c0-.5-.1-.5.5-.5,1.2,0,4.3,0,5.5,0,.3,0,.6,0,.9.1.7.2,1.2.8,1.2,1.5,0,.1,0,.2,0,.4,0,2.4,0,5.5,0,7.9s0,.2,0,.3ZM234.9,67.9c-.6-3.3-2.4-5.9-5.4-7.5-2.1-1.1-4.3-1.6-6.6-1.7-.4,0-.9,0-1.3,0-.3,0-.3,0-.3-.3,0,0,0-.2,0-.3,0-2.3,0-5.3,0-7.6,0-1,0-2-.2-2.9-.2-1.4-.6-2.7-1.1-4-1.1-2.3-2.8-4.1-5.1-5.3-2.3-1.3-4.8-1.9-7.5-1.9-1.1,0-4.2,0-5.4,0-.5,0-.5,0-.5-.5,0-.9,0-2.6,0-3.7,0-.1,0-.2,0-.2,0,0-.3,0-.3,0h-11.3s-.1,0-.2,0c0,0,0,0,0,.2v3.6c0,.1,0,.3,0,.4,0,.1,0,.2-.2.2-.1,0-.3,0-.4,0-2.2,0-4.4,0-6.7,0s-.3,0-.4,0c-.2,0-.2,0-.2.2,0,.1,0,.3,0,.4v10.7c0,.7,0,.6.6.6,2.3,0,4.5,0,6.8,0,.6,0,.5,1,.5,1v8.1s0,.5,0,.5c0,0,0,.9-.4.9h-.7c-3.4,0-6.9,0-10.3,0-.5,0-.4.6-.4.6v10.8s0,.5.5.5c3.5,0,7.3,0,10.9,0,.6,0,.6,0,.6.6v5c0,6.5,0,12.5,0,19.1,0,.7,0,.6.6.6,3.6,0,7.1,0,10.7,0,.7,0,.6,0,.6-.6v-24c0-.1,0-.3,0-.4,0-.2,0-.3.2-.3.1,0,.3,0,.4,0,2.3,0,6.6,0,8.9,0s5.3,0,8,0c.7,0,1.4.1,2.1.5,1.3.6,1.9,1.6,2.1,3,0,.3,0,.7,0,1,0,3.5,0,4.3,0,7.8,0,1.9-.8,2.7-2.5,2.7-3.5,0-5.1,0-8.6,0s-.3,0-.5,0c-.2,0-.2,0-.2.2,0,.2,3.5,8.1,4.2,9.7,0,0,0,0,0,0,0,.1.2.2.3.2,0,0,0,0,.1,0,.7,0,2.2,0,3.7,0,1.1,0,3.9,0,5,0,1,0,2.1-.3,3.1-.6,4.4-1.3,7.3-5.2,7.3-9.8,0-5.1,0-9.7,0-14.8,0-1,0-1.9-.2-2.8Z"/>
    </g>
  </g>
</svg>